<?xml version="1.0" encoding="UTF-8"?><svg id="b" xmlns="http://www.w3.org/2000/svg" width="200" height="43.95047" viewBox="0 0 200 43.95047"><g id="c"><path d="M19.24421,42.99778L47.44364,9.84439c-1.90537.69863-3.55668,1.71483-4.76342,3.1121-1.77834,2.09591-25.53192,30.04129-25.53192,30.04129h2.0959Z" style="fill:#fff; stroke-width:0px;"/><path d="M21.91172,42.99778L50.80979,9.01874c-.88917.12702-1.77834.31756-2.604.57161l-28.45348,33.40743h2.15942Z" style="fill:#fff; stroke-width:0px;"/><path d="M24.51572,42.99778L53.73135,8.63766h0c-.76214.12702-2.22293.25405-2.34995.25405l-28.96158,34.10607h2.0959Z" style="fill:#fff; stroke-width:0px;"/><path d="M27.18324,42.99778L56.97047,7.93903h0c-.95268.25405-1.84186.44459-2.604.57161l-29.27914,34.48714h2.0959Z" style="fill:#fff; stroke-width:0px;"/><path d="M60.78121,6.54176h0c-1.14322.5081-2.15942.88917-3.1121,1.20673l-29.97777,35.24929h2.15942L60.78121,6.54176Z" style="fill:#fff; stroke-width:0px;"/><path d="M61.67038,6.16069l-31.31153,36.83709h2.0959L65.54462,4.06478h0c-1.39727.82566-2.66751,1.5243-3.87425,2.09591Z" style="fill:#fff; stroke-width:0px;"/><path d="M66.62433,3.42966l-33.66148,39.56812h2.0959L71.6418,0h0c-1.77834,1.33376-3.49317,2.47698-5.01747,3.42966Z" style="fill:#fff; stroke-width:0px;"/><path d="M122.57861,31.56558c-.95268,0-1.07971-.5081-1.07971-1.07971V11.81328h.25405c.06352,0,.25405.06351.38108.06351.06352,0,.12702.06351.19054.12702.31756.19054.76214.44459,1.71483.44459h4.38234c.25405,0,.57161,0,.82566-.06351.25405,0,.5081-.06351.76214-.06351.63512,0,.95268.25405.95268.69863v16.70372c0,.69863-.38108,1.14322-.95268,1.14322-.88917,0-.95268-.5081-.95268-.69863v-.95269h-5.33502v.95268c-.06352.69863-.44458,1.39727-1.14322,1.39727M123.65832,28.19943h5.33502v-14.16323c0-.31756-.06352-.57161-.57161-.57161h-4.76342v14.73484Z" style="fill:#fff; stroke-width:0px;"/><path d="M114.00446,32.7088c-.82566,0-.95268-.38107-.95268-1.58781,0-.76215.12702-7.68498.12702-9.90791-1.14322,1.65132-3.23913,4.63639-6.54176,6.7323l-.12702.06351-.12702-.06351c-.06352,0-.12702-.06351-.12702-.06351l-.25405-.12702.12702-.19054c4.31883-4.82693,5.97015-8.51064,6.79581-10.47952h-2.09591c-1.07971,0-2.60401.06351-3.42966.12702h-.12702l-.63512-1.46078.38108.06351c.57161.12702,3.1121.19054,3.87425.19054h2.15941v-3.93776c-1.52429.31756-3.36615.69863-5.208.82566h-.12702l-.31756-.5081.25405-.06351c2.66751-.95268,3.93776-1.46078,5.208-2.22293.63512-.38107,1.20673-.69863,1.65132-.95268,1.39727-.82566,1.90537-1.14322,2.28644-1.14322.25405,0,.44458.19054.5081.31756.38108.57161.5081.82566.69864,1.07971l.19054.31756c.12702.19054.12702.38107.06352.57161-.12702.31756-.57161.5081-.82566.57161l-.06352.06351c-.88917.38107-2.03239.57161-2.47697.69863v4.38234h3.23913c.19054-.38107.57161-.57161.95268-.57161.63512,0,1.0162.5081,1.07971,1.0162,0,.19054,0,.38107-.12702.5081-.06352.06351-.19054.12702-.31756.12702h-4.82693v2.604c2.92157.57161,4.31883,1.52429,4.31883,2.98508,0,.5081-.44458,1.14322-1.07971,1.14322-.88917,0-1.14322-.63512-1.52429-1.27024-.31756-.63512-.69864-1.39727-1.71483-1.90537v2.41346c0,.88917.06352,4.44586.12702,6.54176,0,.88917.06352,1.52429.06352,1.58781.25402.44459.25402,1.52429-1.07974,1.52429" style="fill:#fff; stroke-width:0px;"/><path d="M93.80757,32.7088l-.19054-.12702c-4.50937-2.85805-7.55795-6.66878-9.27279-11.68625-.38108-1.20673-.63512-2.22293-.82566-2.98508-1.77834,10.60654-8.95522,13.78216-12.00381,14.67133l-.19054.06351-.06351-.12702c0-.06351-.06351-.06351-.06351-.12702v-.06351l-.06351-.19054.19054-.06351c1.77834-.95268,5.08098-2.92156,7.04986-5.90664,1.77834-2.66751,2.85805-5.84313,3.30264-9.3363h-6.73229c-.82566,0-2.47698,0-3.23912.12702h-.12702l-.63512-1.46078.38107.06351c.5081.12702,2.92156.19054,3.68371.19054h6.7323c.12702-2.79454,0-4.63639-.06352-5.77961-.06352-1.14322-.12702-1.58781.12702-1.84185.12702-.12702.25405-.12702.44458-.12702h1.84185c.19054,0,.38108.06351.44458.19054.31756.38107.19054,1.20673-.25405,4.44586-.12702.88917-.25405,1.90537-.44458,3.17561h10.16196c.19054-.38107.63512-.57161.95268-.57161.38108,0,.88917.25405,1.07971.95268.06352.25405,0,.44459-.06352.5081-.06352.06351-.12702.12702-.31756.12702h-11.30518c2.34995,10.03493,10.09844,12.9565,12.38489,13.59162l.12702.06351v.44459h-.19054c-.88917.06351-1.90537.31756-2.79453,1.52429l-.06351.25405Z" style="fill:#fff; stroke-width:0px;"/><path d="M163.03591,32.7088l-.19053-.12702c-4.50937-2.85805-7.55795-6.66878-9.27279-11.68625-.38108-1.20673-.63512-2.22293-.82566-2.98508-1.77834,10.60654-8.95523,13.78216-12.00381,14.67133l-.19054.06351-.06352-.12702c0-.06351-.06352-.06351-.06352-.12702v-.06351l-.06352-.19054.19054-.06351c1.77834-.95268,5.08098-2.92156,7.04986-5.90664,1.77834-2.66751,2.85805-5.84313,3.30263-9.3363h-6.7323c-.82566,0-2.47697,0-3.23913.12702h-.12702l-.63512-1.46078.38108.06351c.57161.12702,2.92157.19054,3.68371.19054h6.7323c.12702-2.79454,0-4.63639-.06352-5.77961-.06352-1.14322-.12702-1.58781.12702-1.84185.12702-.12702.25405-.12702.44458-.12702h1.84185c.19054,0,.38108.06351.44458.19054.31756.38107.19054,1.20673-.25405,4.44586-.12702.88917-.25405,1.90537-.44458,3.17561h10.16196c.19053-.38107.63512-.57161.95268-.57161.38108,0,.88917.25405,1.07972.95268.06352.25405,0,.44459-.06352.5081-.06352.06351-.12703.12702-.31756.12702h-11.30518c2.34995,10.03493,10.09845,12.9565,12.38488,13.59162l.12703.06351v.44459h-.19053c-.88917.06351-1.90537.31756-2.79453,1.52429l-.06352.25405Z" style="fill:#fff; stroke-width:0px;"/><path d="M181.58147,12.76596h0c-.19053,0-.38108-.06351-.57161-.12702-.57161-.25405-.63512-.57161-.82565-.95268-.19053-.5081-.50809-1.27024-1.71484-2.28644l.19053-.44459c2.41346.38107,3.55669,1.0162,4.00126,1.96888.19053.44459.12703.95268-.12703,1.33376-.19051.31756-.57159.5081-.95266.5081" style="fill:#fff; stroke-width:0px;"/><path d="M186.98001,12.63893h-.19053c-.76215-.12702-.88917-.5081-1.14321-1.07971-.25405-.5081-.57161-1.27024-1.58781-2.28644l-.06352-.06351.19053-.38107.19053.06351c2.22293.57161,3.36614.88917,3.74722,2.0959.12703.38107.06352.88917-.19053,1.20673-.25405.25405-.57161.44459-.95268.44459" style="fill:#fff; stroke-width:0px;"/><path d="M176.75454,18.22801c-.38108,0-.69864-.12702-.95268-.38107-.19053-.25405-.25405-.5081-.25405-.82566.12703-.63512.50809-.88917.95268-1.20673.57161-.38107,1.20673-.82566,1.58781-2.15942l.06352-.12702h12.51192c.50809-.82566.82565-1.46078,1.20673-2.47698l.25405-.5081c.63512-1.52429,1.0162-2.34995,1.65132-2.34995.12703,0,.19053,0,.31756.06351.82565.38107,1.07972.57161,1.52429.88917l.06352.06351c.19053.12702.31756.25405.31756.5081,0,.5081-.57161,1.27024-1.71484,2.15942-.95268.76215-1.84185,1.33376-2.41346,1.71483h4.95395c.19053-.76215.82565-1.20673,1.58781-1.20673.44459,0,.88917.25405,1.14321.63512s.31756.88917.12703,1.33376v.12702h0c-.12703.25405-.50809.88917-1.33376,1.65132-1.71484,1.46078-2.66752,1.71483-2.66752,1.77834h-.19055l-.06352-.12702c-.06352-.12702,0-.19054.06352-.31756.19053-.25405.57161-.82566.82565-1.52429.25405-.63512.38108-1.07971.44459-1.27024h-17.65639c.06352,1.77834-.44459,2.66751-.88917,3.1121-.69862.38107-1.27023.44458-1.46077.44458" style="fill:#fff; stroke-width:0px;"/><path d="M185.20168,32.7088l-.06352-.19054c-.12703-.82566-.95268-1.58781-2.22293-2.22293l-.12703-.06351v-.5081h.19053c.38108,0,.69864.06351,1.0162.06351.69864.06351,1.20673.12702,1.71484.12702.63512,0,.88917-.12702.88917-1.07971v-4.57288h-6.7323c-1.07972,0-2.79453,0-4.00126.12702h-.12703l-.63512-1.39727.38108.06351c.95268.12702,2.15941.19054,3.55669.19054h7.62147v-.69863c0-.5081-.06352-1.20673-.31756-1.90537l-.12703-.38107,1.96888.5081c.76215-.57161,1.65132-1.33376,2.47697-2.54049h-7.11336c-.76215,0-1.84185,0-2.92157.12702h-.12703l-.63512-1.39727.38108.06351c1.20673.12702,2.41346.19054,3.49317.19054h7.43094l.06352-.06351c.19053-.25405.63512-.76215,1.46077-.76215.38108,0,.76215.19054,1.0162.44459.25405.25405.31756.57161.25405.88917-.06352.57161-.50809,1.0162-1.39728,1.52429-.76215.44459-3.74722,2.0959-3.93777,2.15942q-.06352.06351-.06352.19054v1.65132h9.3998c.19053-.38107.57161-.57161.95268-.57161.63512,0,1.07972.63512,1.07972,1.20673v.25405h-.06352l-.06352.06351c-.06352.06351-.19053.12702-.31756.12702h-11.05112v5.14449c0,.88917,0,2.28644-3.1121,3.1121l-.19051.12702Z" style="fill:#fff; stroke-width:0px;"/><path d="M26.9927,13.08352c-2.98508-3.49317-5.97015-5.27152-10.79708-5.27152H.31756c-.19054,0-.31756.12702-.31756.31756s.12702.25405.38107.31756c.69863.25405,5.7161,1.07971,10.03493,6.2242,3.49317,4.1283,24.07114,28.26294,24.07114,28.26294v-21.08606s-5.39854-6.28771-7.49445-8.76469ZM33.28041,39.12353c-5.208-6.09717-18.79962-22.10226-21.59416-25.40489-2.0959-2.47698-4.25532-3.93776-6.03366-4.76342h1.96888c1.52429.69863,3.42966,2.15942,4.95395,3.93776,2.66751,3.1121,14.98889,17.6564,20.70499,24.32518,0,0,0,1.90537,0,1.90537Z" style="fill:#fff; stroke-width:0px;"/><path d="M89.17117,39.82217l1.07971-1.58781c.06352-.12702.19054-.25405.12702-.44459-.06352-.06351-.12702-.12702-.5081-.12702v-.12702h1.65132v.12702c-.5081.06351-.88917.57161-1.14322.88917l-1.07971,1.58781v1.65132c0,.19054.12702.44458.76214.44458v.12702h-2.34995v-.12702c.63512,0,.76214-.25405.76214-.44458v-1.58781l-.95268-1.33376c-.5081-.69863-.76214-1.20673-1.27024-1.20673v-.12702h2.15941v.12702c-.38108,0-.57161.06351-.57161.19054s.06352.25405.19054.38107l1.14322,1.58781Z" style="fill:#fff; stroke-width:0px;"/><path d="M96.34806,41.79105c0,.25405.19054.31756.57161.06351v.19054c-.12702.12702-.44458.38107-.63512.38107-.38108,0-.57161-.25405-.57161-.57161-.38108.31756-.76214.57161-1.14322.57161-.44458,0-.82566-.31756-.82566-.76214,0-.88917,1.20673-1.20673,1.90537-1.46078,0-.76215-.06352-1.07971-.57161-1.07971-.12702,0-.44458.06351-.5081.19054-.06352.06351,0,.25405,0,.44459s-.19054.31756-.31756.31756c-.38108,0-.44458-.31756-.25405-.57161.25405-.44459.76214-.57161,1.20673-.57161.82566,0,1.07971.31756,1.07971,1.27024v1.58781h.06352ZM95.64943,40.45729c-.5081.19054-1.20673.31756-1.20673.95268,0,.31756.19054.57161.5081.57161.12702,0,.57161-.12702.69864-.31756v-1.20673h0Z" style="fill:#fff; stroke-width:0px;"/><path d="M100.22231,40.01271c0-.38107-.06352-.5081-.5081-.5081v-.12702l1.14322-.38107v.5081c0,.19054.12702-.06351.25405-.12702.25405-.19054.57161-.38107.95268-.38107s.69864.25405.76214.63512c.25405-.31756.76214-.63512,1.20673-.63512.88917,0,.95268.76215.95268,1.39727v1.33376c0,.31756.12702.44458.5081.5081v.12702h-1.58781v-.12702c.38108,0,.5081-.19054.5081-.5081v-1.46078c0-.69863-.12702-.88917-.57161-.88917-.38108,0-.63512.19054-.82566.44459v1.90537c0,.31756.12702.44458.5081.5081v.12702h-1.58781v-.12702c.38108,0,.5081-.19054.5081-.5081v-1.52429c0-.38107,0-.82566-.5081-.82566-.31756,0-.69864.19054-.88917.44459v1.96888c0,.31756.12702.44458.5081.5081v.12702h-1.84186v-.12702c.38108,0,.5081-.19054.5081-.5081v-1.77834Z" style="fill:#fff; stroke-width:0px;"/><path d="M110.95587,41.79105c0,.25405.19054.31756.57161.06351v.19054c-.12702.12702-.44458.38107-.63512.38107-.38108,0-.57161-.25405-.57161-.57161-.38108.31756-.76214.57161-1.14322.57161-.44458,0-.82566-.31756-.82566-.76214,0-.88917,1.20673-1.20673,1.90537-1.46078,0-.76215-.06352-1.07971-.57161-1.07971-.12702,0-.44458.06351-.5081.19054-.06352.06351,0,.25405,0,.44459s-.19054.31756-.31756.31756c-.38108,0-.44458-.31756-.25405-.57161.25405-.44459.76214-.57161,1.20673-.57161.82566,0,1.07971.31756,1.07971,1.27024v1.58781h.06352ZM110.32075,40.45729c-.5081.19054-1.20673.31756-1.20673.95268,0,.31756.19054.57161.5081.57161.12702,0,.57161-.12702.69864-.31756v-1.20673h0Z" style="fill:#fff; stroke-width:0px;"/><path d="M115.2747,41.34646c0,.5081.06352.88917.57161.69863.12702-.06351.19054-.12702.25405-.19054l.12703.06352c-.25405.38107-.63512.57161-1.0162.57161-.5081,0-.63512-.31756-.63512-1.01619v-2.09591h-.25405c-.06352,0-.25405.06351-.19054-.12702.44458-.25405.69864-.69863,1.07971-1.07971v.95268h.76214v.25405h-.76214v1.96888h.06352Z" style="fill:#fff; stroke-width:0px;"/><path d="M122.38807,40.64783c0,.95268-.63512,1.77834-1.71483,1.77834-.95268,0-1.65132-.76214-1.65132-1.65132,0-.95268.57161-1.77834,1.65132-1.77834,1.0162.06351,1.71483.69863,1.71483,1.65131M121.68944,40.96539c0-.63512-.25405-1.71483-1.07971-1.71483-.57161,0-.88917.5081-.88917,1.14322,0,1.01619.38108,1.84186,1.07971,1.84186.57161,0,.88917-.63512.88917-1.27024" style="fill:#fff; stroke-width:0px;"/><path d="M130.51764,38.17085c0-.19054-.12702-.44459-.69864-.44459v-.12702h2.15941v.12702c-.57161,0-.69864.25405-.69864.44459v2.47698c0,1.14322.38108,1.58781,1.33376,1.58781,1.46078,0,1.46078-1.01619,1.46078-1.71483v-2.28644c0-.19054-.12702-.44459-.69864-.44459v-.12702h1.77834v.12702c-.63512,0-.69864.25405-.69864.44459v2.28644c0,.82566-.06352,1.46078-.95268,1.84185-.25405.12702-.63512.19054-.95268.19054-1.39727,0-1.96888-.63512-1.96888-1.96888v-2.41347h-.0635Z" style="fill:#fff; stroke-width:0px;"/><path d="M138.20262,40.01271c0-.57161-.06352-.57161-.5081-.5081v-.12702l1.14322-.31756v.57161c.25405-.25405.63512-.57161,1.14322-.57161.57161,0,.88917.38107.88917,1.14322v1.58781c0,.31756.12702.44458.5081.5081v.12702h-1.58781v-.12702c.38108,0,.5081-.19054.5081-.5081v-1.58781c0-.44459-.06352-.82566-.57161-.82566-.38108,0-.63512.25405-.82566.44459v1.96888c0,.31756.12702.44458.5081.5081v.12702h-1.65132v-.12702c.38108,0,.5081-.19054.5081-.5081v-1.77834h-.06352Z" style="fill:#fff; stroke-width:0px;"/><path d="M144.93491,40.01271c0-.57161-.06352-.63512-.57161-.5081v-.12702l1.20673-.38107v2.73103c0,.31756.12702.44458.57161.5081v.12702h-1.84185v-.12702c.44458,0,.57161-.19054.57161-.5081v-1.71483h.06352ZM144.80789,37.78978c0-.19054.19054-.38107.38108-.38107s.38108.19054.38108.38107-.19054.38107-.38108.38107-.38108-.19054-.38108-.38107" style="fill:#fff; stroke-width:0px;"/><path d="M150.77804,42.23564c0,.06351-.06352.19054-.12702.19054-.06352,0-.12702-.12702-.12702-.19054l-1.20673-2.66751c-.12702-.25405-.31756-.38107-.5081-.38107v-.12702h1.52429v.12702c-.5081,0-.38108.25405-.25405.57161l.76214,1.71483.57161-1.46078c.25405-.57161.31756-.82566-.12702-.82566v-.12702h1.07971v.12702c-.31756,0-.38108.31756-.5081.63512l-1.07971,2.41346Z" style="fill:#fff; stroke-width:0px;"/><path d="M155.54146,40.39378c0,.69863.38108,1.58781,1.27024,1.58781.5081,0,.95268-.38107,1.14322-.76214l.12702.06351c-.25405.63512-.82566,1.20673-1.58781,1.20673-.88917,0-1.46078-.76214-1.46078-1.65132,0-1.01619.63512-1.77834,1.58781-1.77834.82566,0,1.33376.57161,1.33376,1.33376,0,0-2.41347,0-2.41347,0ZM157.12926,40.13973c0-.44459-.25405-.82566-.76214-.82566s-.76214.38107-.82566.82566h1.58781Z" style="fill:#fff; stroke-width:0px;"/><path d="M161.38459,40.20324c0-.69863-.12702-.76215-.57161-.63512v-.12702l1.20673-.38107v.63512h0c.12702-.25405.44458-.63512.88917-.63512.31756,0,.44459.19054.44459.5081,0,.12702-.12703.25405-.31756.25405-.25405,0-.31756-.25405-.5081-.25405-.12702,0-.44458.38107-.44458.57161v1.71483c0,.31756.12702.44458.57161.5081v.12702h-1.77834v-.12702c.44458,0,.57161-.19054.57161-.5081v-1.65132h-.06351Z" style="fill:#fff; stroke-width:0px;"/><path d="M166.33854,41.28295h.12703c.06352.5081.38108,1.01619,1.0162,1.01619.31756,0,.63512-.19054.63512-.5081,0-.76214-1.71484-.76214-1.71484-1.84186,0-.57161.50809-.88917,1.07972-.88917.19053,0,.31756.06351.57161.12702.25405.06351.25405,0,.25405-.06351h.12703v1.01619h-.12703c-.12703-.5081-.31756-.88917-.82565-.88917-.31756,0-.57161.19054-.57161.5081,0,.69863,1.77833.88917,1.77833,1.77834,0,.63512-.50809.95268-1.14321.95268-.19053,0-.31756-.06351-.57161-.12702-.44459-.12702-.44459,0-.44459.06351h-.12703v-1.14322h-.06352Z" style="fill:#fff; stroke-width:0px;"/><path d="M172.11815,40.01271c0-.57161-.06352-.63512-.57161-.5081v-.12702l1.20673-.38107v2.73103c0,.31756.12703.44458.57161.5081v.12702h-1.84185v-.12702c.44459,0,.57161-.19054.57161-.5081v-1.71483h.06352ZM171.99112,37.78978c0-.19054.19053-.38107.38108-.38107.19053,0,.38108.19054.38108.38107s-.19053.38107-.38108.38107c-.19053,0-.38108-.19054-.38108-.38107" style="fill:#fff; stroke-width:0px;"/><path d="M177.13562,41.34646c0,.5081.06352.88917.57161.69863.12703-.06351.19053-.12702.25405-.19054l.12703.06351c-.25405.38107-.63512.57161-1.0162.57161-.50809,0-.63512-.31756-.63512-1.01619v-2.0959h-.25405c-.06352,0-.25405.06351-.19053-.12702.44459-.25405.69864-.69863,1.07972-1.07971v.95268h.76215v.25405h-.76215v1.96888h.0635Z" style="fill:#fff; stroke-width:0px;"/><path d="M183.67739,39.50461c.06352-.12702.06352-.25405-.31756-.31756v-.12702h1.0162v.12702c-.12703,0-.31756.25405-.38108.44459l-1.14321,2.79454c-.19053.57161-.57161,1.52429-1.33376,1.52429-.19053,0-.38108-.06351-.50809-.25405-.06352-.12702-.06352-.19054,0-.31756s.19053-.19054.38108-.19054c.12703,0,.25405.06351.44459.12702.19053.06351.38108-.12702.69864-.82566.06352-.12702.12703-.25405.06352-.31756l-1.33376-2.66751c-.06352-.19054-.19053-.31756-.44459-.31756v-.12702h1.58781v.12702c-.50809,0-.50809.19054-.38108.5081l.88917,1.84186.76214-2.03239Z" style="fill:#fff; stroke-width:0px;"/></g></svg>