<?xml version="1.0" encoding="UTF-8"?><svg id="b" xmlns="http://www.w3.org/2000/svg" width="18" height="18" viewBox="0 0 18 18"><g id="c"><rect width="18" height="18" style="fill:none; stroke-width:0px;"/><path d="M9,14v2c.7168,0,1.4082-.1094,2.0605-.3086.0665-.3476.1817-.959.3106-1.6914h-2.3711Z" style="fill:#87131b; stroke-width:0px;"/><path d="M4.3027,6h-1.6201c-.4326.9102-.6826,1.9248-.6826,3h2c0-.7305.1338-1.8594.3027-3Z" style="fill:#87131b; stroke-width:0px;"/><path d="M4.1055,14c.1953.1904.4023.3672.6191.5332-.0312-.1689-.0625-.3457-.0957-.5332h-.5234Z" style="fill:#87131b; stroke-width:0px;"/><path d="M5.6289,14c.085.4834.1631.9102.2266,1.248.6621.334,1.3828.5635,2.1445.6719v-1.9199h-2.3711Z" style="fill:#87131b; stroke-width:0px;"/><path d="M4.0547,10h-1.9746c.1582,1.1035.5683,2.125,1.1797,3h1.1992c-.166-1.0137-.3242-2.1074-.4043-3Z" style="fill:#87131b; stroke-width:0px;"/><path d="M14.7402,5c-.6621-.9492-1.5547-1.7227-2.5957-2.248.1055.5585.252,1.3662.3965,2.248h2.1992Z" style="fill:#87131b; stroke-width:0px;"/><path d="M4.7246,3.4668c-.5625.4346-1.0576.9492-1.4648,1.5332h1.1992c.0908-.5547.1826-1.0781.2656-1.5332Z" style="fill:#87131b; stroke-width:0px;"/><path d="M11.541,5c-.1894-1.1582-.3847-2.1963-.4805-2.6914-.6523-.1992-1.3437-.3086-2.0605-.3086v3h2.541Z" style="fill:#87131b; stroke-width:0px;"/><path d="M8,5v-2.9199c-.7617.1084-1.4824.3379-2.1445.6719-.1055.5585-.252,1.3662-.3965,2.248h2.541Z" style="fill:#87131b; stroke-width:0px;"/><path d="M13,9h3c0-1.0752-.25-2.0898-.6826-3h-2.6201c.1689,1.1406.3027,2.2695.3027,3Z" style="fill:#87131b; stroke-width:0px;"/><path d="M9,6v3h3c0-.7305-.1338-1.8594-.3027-3h-2.6973Z" style="fill:#87131b; stroke-width:0px;"/><path d="M5.459,13h2.541v-3h-2.9453c.0801.8926.2383,1.9863.4043,3Z" style="fill:#87131b; stroke-width:0px;"/><path d="M9,13h2.541c.166-1.0137.3242-2.1074.4043-3h-2.9453v3Z" style="fill:#87131b; stroke-width:0px;"/><path d="M5,9h3v-3h-2.6973c-.1689,1.1406-.3027,2.2695-.3027,3Z" style="fill:#87131b; stroke-width:0px;"/><path d="M12.1445,15.248c.6465-.3261,1.2373-.746,1.75-1.248h-1.5234c-.085.4834-.1631.9102-.2266,1.248Z" style="fill:#87131b; stroke-width:0px;"/><path d="M12.541,13h2.1992c.6114-.875,1.0215-1.8965,1.1797-3h-2.9746c-.0801.8926-.2383,1.9863-.4043,3Z" style="fill:#87131b; stroke-width:0px;"/></g></svg>