<?xml version="1.0" encoding="UTF-8"?><svg id="b" xmlns="http://www.w3.org/2000/svg" width="18" height="18" viewBox="0 0 18 18"><g id="c"><rect width="18" height="18" style="fill:none; stroke-width:0px;"/><path d="M16,16H2v-1c0-2,5-2,5-4h2v2l1-2h1c0,2,5,2,5,4v1Z" style="fill:#8d8689; stroke-width:0px;"/><path d="M12,6c0,1-1,4-2,4h-2c-1,0-2-3-2-4,0-2,0-4,3-4s3,1.791,3,4Z" style="fill:#8d8689; stroke-width:0px;"/><path d="M11.9053,7.5791c-.0479.2725-.3067.4541-.5791.4053h0c-.2725-.0479-.4532-.3067-.4053-.5791l.1738-.9844c.0479-.2725.3067-.4541.5791-.4053h0c.2715.0479.4532.3067.4053.5791l-.1738.9844Z" style="fill:#8d8689; stroke-width:0px;"/><path d="M7.0791,7.4053c.0479.2724-.1328.5312-.4053.5791h0c-.2724.0488-.5312-.1328-.5791-.4053l-.1738-.9844c-.0479-.2724.1328-.5312.4053-.5791h0c.2724-.0488.5312.1328.5791.4053l.1738.9844Z" style="fill:#8d8689; stroke-width:0px;"/></g></svg>