<?xml version="1.0" encoding="UTF-8"?><svg id="b" xmlns="http://www.w3.org/2000/svg" width="18" height="18" viewBox="0 0 18 18"><g id="c"><rect width="18" height="18" style="fill:none; stroke-width:0px;"/><path d="M11.50026,1.99974c-2.48541,0-4.5,2.01459-4.5,4.5s2.01459,4.5,4.5,4.5,4.5-2.01459,4.5-4.5S13.98567,1.99974,11.50026,1.99974ZM11.50026,9.99974c-1.92969,0-3.5-1.57031-3.5-3.5s1.57031-3.5,3.5-3.5,3.5,1.57031,3.5,3.5-1.57031,3.5-3.5,3.5Z" style="fill:#8d8689; stroke-width:0px;"/><path d="M2.72299,11.63002h4.29334c.55225,0,1.00061.44836,1.00061,1.00061v1.00039c0,.55175-.44795.9997-.9997.9997H2.72369c-.55187,0-.99992-.44805-.99992-.99992v-1.00158c0-.55148.44773-.99921.99921-.99921Z" transform="translate(-7.86221 7.29866) rotate(-45.04049)" style="fill:#8d8689; stroke-width:0px;"/></g></svg>