<?xml version="1.0" encoding="UTF-8"?><svg id="b" xmlns="http://www.w3.org/2000/svg" width="29.98738" height="34.25527" viewBox="0 0 29.98738 34.25527"><g id="c"><path d="M28.97657,7.52493c-3.59399,0-6.51411-2.92012-6.51411-6.51412,0-.56156-.44925-1.01081-1.01081-1.01081h-5.39099c-.56156,0-1.01081.44925-1.01081,1.01081v22.01322c0,2.13393-1.68468,3.81862-3.81862,3.81862s-3.81862-1.68469-3.81862-3.81862,1.68468-3.81862,3.81862-3.81862c.56156,0,1.01081-.44925,1.01081-1.01081v-5.39099c0-.56156-.44925-1.01081-1.01081-1.01081C5.05405,11.7928,0,16.84686,0,23.02404s5.05405,11.23124,11.23123,11.23124,11.23123-5.05406,11.23123-11.23124v-9.65887c2.02162,1.01081,4.26787,1.57237,6.51411,1.57237.56156,0,1.01081-.44925,1.01081-1.01081v-5.39099c0-.56156-.44925-1.01081-1.01081-1.01081Z" style="fill:#fff; stroke-width:0px;"/></g></svg>