<svg xmlns="http://www.w3.org/2000/svg" viewBox="0 0 32.91 32.91"><path d="M32.65,14.08a11.44,11.44,0,0,1-2.37,7.26A23.42,23.42,0,0,1,26.82,25a60.13,60.13,0,0,1-8.73,6.22c-.63.38-1.31.67-2,1a1.15,1.15,0,0,1-.5.12c-.43,0-.65-.19-.6-.69s.13-.93.21-1.4a5.23,5.23,0,0,0,.08-1.58,1,1,0,0,0-.57-.77,4.13,4.13,0,0,0-1.37-.39,18.31,18.31,0,0,1-4.16-1.13,16.22,16.22,0,0,1-4.46-2.64A12.42,12.42,0,0,1,.46,16.86a10.54,10.54,0,0,1-.22-3A11.42,11.42,0,0,1,2.81,7.45,15.34,15.34,0,0,1,8.79,3a18.6,18.6,0,0,1,6.57-1.53,18.82,18.82,0,0,1,10,2.15,14.21,14.21,0,0,1,5.79,5.45A10.64,10.64,0,0,1,32.65,14.08ZM16.34,14c1.32,1.81,2.6,3.55,3.88,5.29a1.07,1.07,0,0,0,2-.66V11a1.21,1.21,0,0,0,0-.19,1.05,1.05,0,0,0-.69-.92,1,1,0,0,0-1.1.22,1.21,1.21,0,0,0-.36.93v4.56l-.16-.21L17.37,12l-1.2-1.64a1.06,1.06,0,0,0-1.1-.49,1,1,0,0,0-.81.71,2.17,2.17,0,0,0-.07.57c0,2.46,0,4.93,0,7.39a2.08,2.08,0,0,0,.07.55,1.08,1.08,0,0,0,1.15.73,1.13,1.13,0,0,0,.92-1.08c0-.93,0-1.85,0-2.78Zm9.32-2h2.87a1,1,0,0,0,1-1.06,1,1,0,0,0-1-1.06h-4a1,1,0,0,0-1,1q0,4,0,7.92a1,1,0,0,0,1,1h4a1,1,0,0,0,1-1,1,1,0,0,0-1-1.1H25.65V15.88h2.82a1,1,0,0,0,1.07-1,1,1,0,0,0-1-1.11H25.66ZM5.85,17.67v-.35q0-3.18,0-6.38a1.06,1.06,0,1,0-2.12,0v7.68a1.09,1.09,0,0,0,0,.18,1.05,1.05,0,0,0,1,1h4a1.07,1.07,0,0,0,1-1.3,1,1,0,0,0-1.06-.83Zm6.94-2.85c0-1.27,0-2.55,0-3.83a1.12,1.12,0,0,0-.72-1.1A1.08,1.08,0,0,0,10.63,11q0,3.81,0,7.62a1.41,1.41,0,0,0,.14.58,1.05,1.05,0,0,0,1.15.57,1.12,1.12,0,0,0,.86-1.09C12.79,17.4,12.79,16.11,12.79,14.82Z" style="fill:#fff"/></svg>