<svg xmlns="http://www.w3.org/2000/svg" viewBox="0 0 32.91 32.91"><path d="M16.46,3.25c4.3,0,4.81,0,6.5.09a9.14,9.14,0,0,1,3,.56A5.27,5.27,0,0,1,29,7a8.8,8.8,0,0,1,.56,3c.08,1.69.09,2.2.09,6.51s0,4.81-.09,6.5A8.87,8.87,0,0,1,29,26,5.29,5.29,0,0,1,26,29a8.87,8.87,0,0,1-3,.56c-1.69.08-2.2.09-6.5.09s-4.82,0-6.51-.09A8.8,8.8,0,0,1,7,29,5.27,5.27,0,0,1,3.9,26a8.87,8.87,0,0,1-.56-3c-.07-1.69-.09-2.2-.09-6.5s0-4.82.09-6.51A8.8,8.8,0,0,1,3.9,7,5.25,5.25,0,0,1,7,3.9a9.06,9.06,0,0,1,3-.56c1.69-.07,2.2-.09,6.51-.09m0-2.9c-4.38,0-4.93,0-6.65.09a11.87,11.87,0,0,0-3.91.75A8,8,0,0,0,3.05,3.05,8,8,0,0,0,1.19,5.9,11.87,11.87,0,0,0,.44,9.81C.37,11.53.35,12.08.35,16.46s0,4.92.09,6.64A11.87,11.87,0,0,0,1.19,27a8,8,0,0,0,1.86,2.85A7.84,7.84,0,0,0,5.9,31.72a11.87,11.87,0,0,0,3.91.75c1.72.08,2.27.09,6.65.09s4.92,0,6.64-.09A11.87,11.87,0,0,0,27,31.72,8.27,8.27,0,0,0,31.72,27a11.87,11.87,0,0,0,.75-3.91c.08-1.72.09-2.27.09-6.64s0-4.93-.09-6.65a11.87,11.87,0,0,0-.75-3.91,7.84,7.84,0,0,0-1.86-2.85A8,8,0,0,0,27,1.19,11.87,11.87,0,0,0,23.1.44C21.38.37,20.83.35,16.46.35Z" style="fill:#fff"/><path d="M16.46,8.18a8.28,8.28,0,1,0,8.27,8.28A8.28,8.28,0,0,0,16.46,8.18Zm0,13.65a5.37,5.37,0,1,1,5.37-5.37A5.37,5.37,0,0,1,16.46,21.83Z" style="fill:#fff"/><circle cx="25.05" cy="7.86" r="1.93" style="fill:#fff"/></svg>